<?xml version="1.0" encoding="iso-8859-1"?>
<!-- Generator: Adobe Illustrator 19.0.0, SVG Export Plug-In . SVG Version: 6.00 Build 0)  -->
<svg version="1.1" id="Layer_1" xmlns="http://www.w3.org/2000/svg" xmlns:xlink="http://www.w3.org/1999/xlink" x="0px" y="0px"
	 viewBox="0 0 502.009 502.009" style="enable-background:new 0 0 502.009 502.009;" xml:space="preserve">
<g>
	<g>
		<path style="fill:white;" d="M472.69,119.164L361.427,55.002c-25.746-14.847-57.91,3.746-57.893,33.466l0.019,32.431
			c-65.191,16.436-125.322,48.869-175.099,94.672C71.181,268.273,30.579,336.178,11.039,411.945
			c-4.447,17.243,5.926,34.827,23.169,39.273c2.946,0.76,5.901,1.087,8.799,1.022c14.068-0.319,26.787-9.893,30.474-24.191
			c29.654-114.985,118.05-206.018,230.109-240.239l0.017,29.109c0.017,29.721,32.202,48.277,57.931,33.4l111.189-64.29
			C498.454,171.155,498.433,134.01,472.69,119.164z"/>
		<path d="M42.282,462.248c-3.554,0-7.106-0.452-10.573-1.347c-10.923-2.817-20.098-9.721-25.832-19.439
			c-5.733-9.718-7.339-21.088-4.521-32.014c20.022-77.639,61.631-147.225,120.327-201.236
			c48.779-44.885,108.06-77.638,171.865-95.027l-0.014-24.712c-0.01-17.573,9.067-33.314,24.281-42.109
			c15.214-8.795,33.385-8.804,48.608-0.025l111.262,64.163h-0.001c15.222,8.777,24.315,24.508,24.325,42.079
			s-9.065,33.312-24.276,42.107l-111.188,64.29c-15.212,8.796-33.382,8.809-48.607,0.03c-15.225-8.777-24.319-24.509-24.329-42.082
			l-0.009-15.309C190.521,237.88,110.519,324.482,83.165,430.547c-4.703,18.233-21.123,31.265-39.931,31.691
			C42.917,462.244,42.599,462.248,42.282,462.248z M342.141,59.794c-4.918,0-9.834,1.295-14.316,3.886
			c-8.953,5.176-14.296,14.44-14.29,24.783l0.019,32.431c0.003,4.583-3.111,8.582-7.556,9.703
			c-63.461,16-122.513,47.928-170.771,92.334C79.374,274.323,39.779,340.548,20.722,414.443c-1.483,5.753-0.638,11.74,2.381,16.857
			s7.85,8.752,13.603,10.236c1.998,0.516,4.044,0.755,6.075,0.707c9.899-0.224,18.542-7.087,21.019-16.69
			c14.927-57.878,44.882-111.42,86.627-154.839c41.48-43.143,93.434-75.117,150.245-92.466c3.032-0.926,6.321-0.36,8.868,1.525
			c2.548,1.884,4.051,4.865,4.053,8.033l0.017,29.109c0.006,10.342,5.358,19.601,14.318,24.767
			c8.961,5.166,19.655,5.159,28.606-0.018l111.188-64.29c8.953-5.176,14.294-14.44,14.288-24.781s-5.357-19.599-14.315-24.765
			h-0.001L356.432,63.664C351.957,61.084,347.048,59.794,342.141,59.794z"/>
	</g>
	<g>
		<path d="M458.716,157.456c-1.667,0-3.357-0.417-4.912-1.296l-74.91-42.341c-4.808-2.717-6.502-8.818-3.785-13.626
			c2.719-4.808,8.82-6.503,13.627-3.785l74.91,42.341c4.808,2.717,6.502,8.818,3.785,13.626
			C465.592,155.628,462.203,157.456,458.716,157.456z"/>
	</g>
	<g>
		<path d="M353.433,97.948c-1.667,0-3.356-0.417-4.912-1.296l-11.137-6.294c-4.808-2.717-6.502-8.818-3.785-13.626
			c2.718-4.809,8.816-6.503,13.627-3.785l11.137,6.294c4.808,2.717,6.502,8.818,3.785,13.626
			C360.309,96.12,356.92,97.948,353.433,97.948z"/>
	</g>
</g>
<g>
</g>
<g>
</g>
<g>
</g>
<g>
</g>
<g>
</g>
<g>
</g>
<g>
</g>
<g>
</g>
<g>
</g>
<g>
</g>
<g>
</g>
<g>
</g>
<g>
</g>
<g>
</g>
<g>
</g>
</svg>
